<?xml version="1.0" encoding="UTF-8" standalone="no"?>
<!-- Created with Inkscape (http://www.inkscape.org/) -->

<svg
   version="1.1"
   id="svg1"
   width="32"
   height="32"
   viewBox="0 0 32 32"
   sodipodi:docname="icon-light-32x32.svg"
   inkscape:version="1.4.2 (f4327f4, 2025-05-13)"
   xmlns:inkscape="http://www.inkscape.org/namespaces/inkscape"
   xmlns:sodipodi="http://sodipodi.sourceforge.net/DTD/sodipodi-0.dtd"
   xmlns="http://www.w3.org/2000/svg"
   xmlns:svg="http://www.w3.org/2000/svg">
  <defs
     id="defs1" />
  <sodipodi:namedview
     id="namedview1"
     pagecolor="#ffffff"
     bordercolor="#000000"
     borderopacity="0.25"
     inkscape:showpageshadow="2"
     inkscape:pageopacity="0.0"
     inkscape:pagecheckerboard="0"
     inkscape:deskcolor="#d1d1d1"
     inkscape:zoom="25.46875"
     inkscape:cx="15.980368"
     inkscape:cy="16"
     inkscape:window-width="1920"
     inkscape:window-height="1017"
     inkscape:window-x="-8"
     inkscape:window-y="-8"
     inkscape:window-maximized="1"
     inkscape:current-layer="g1" />
  <g
     inkscape:groupmode="layer"
     inkscape:label="Image"
     id="g1">
    <g
       id="g1035"
       transform="translate(0.11779137,-0.0392638)">
      <path
         style="fill:#fafbfb"
         d="M 0,16 V 0 H 16 32 V 16 32 H 16 0 Z m 20.451627,13.584658 c 3.91595,-1.636188 5.72065,-4.486277 6.165859,-9.737487 0.252215,-2.974852 -0.479412,-4.91001 -3.653244,-9.662861 C 18.415689,3.3727986 16.533974,1.5519519 15.014069,2.4913046 12.65364,3.9501305 5,16.882799 5,19.412488 c 0,4.123189 2.7854548,8.588876 6.314715,10.123855 4.061891,1.766635 5.012365,1.771661 9.136912,0.04832 z M 11,19.5 C 12.865783,17.575 14.617334,16 14.892334,16 15.167334,16 13.865783,17.575 12,19.5 10.134217,21.425 8.3826664,23 8.1076664,23 7.8326664,23 9.1342165,21.425 11,19.5 Z m 4.404988,0.75 C 16.452731,19.0125 18.154732,18 19.187212,18 c 1.03248,0 2.284212,-1.0125 2.781626,-2.25 0.554771,-1.380195 0.928893,-1.650801 0.967776,-0.7 0.07914,1.935271 -1.863095,3.95 -3.807873,3.95 -0.809193,0 -2.406693,0.7875 -3.55,1.75 -2.076643,1.748234 -2.076818,1.747729 -0.173753,-0.5 z M 18.638374,12.5 C 18.954956,11.675 19.670933,11 20.229434,11 20.814738,11 20.717549,11.635407 20,12.5 19.315311,13.325 18.599334,14 18.40894,14 c -0.190394,0 -0.08715,-0.675 0.229434,-1.5 z"
         id="path1040" />
      <path
         style="fill:#a4cee4"
         d="m 14.75,30.337719 c 0.6875,-0.277412 1.8125,-0.277412 2.5,0 0.6875,0.277413 0.125,0.504386 -1.25,0.504386 -1.375,0 -1.9375,-0.226973 -1.25,-0.504386 z M 8.2460292,27.75 C 7.6486402,27.002412 7.5928241,25.696141 8.1071587,24.5 l 0.8599897,-2 -0.2086158,2 C 8.6437939,25.6 8.9027431,27.0625 9.3339754,27.75 9.7652076,28.4375 9.9215765,29 9.6814617,29 9.441347,29 8.7954023,28.4375 8.2460292,27.75 Z M 22,28.622445 c 0,-0.207656 0.7875,-0.995156 1.75,-1.75 C 25.336056,25.628574 25.371426,25.663944 24.127555,27.25 22.821186,28.915748 22,29.445479 22,28.622445 Z M 11.5,24 c 0.995486,-1.1 2.034975,-2 2.309975,-2 0.275,0 -0.314489,0.9 -1.309975,2 -0.995486,1.1 -2.034975,2 -2.309975,2 C 9.9150249,26 10.504514,25.1 11.5,24 Z M 15,22.031385 c 0,-0.532739 0.675,-0.709594 1.5,-0.393011 0.825,0.316582 1.5,0.752459 1.5,0.968615 C 18,22.823145 17.325,23 16.5,23 15.675,23 15,22.564123 15,22.031385 Z m 7,0.244308 c 0.825,-0.299331 2.009948,-0.945301 2.633217,-1.435489 0.705209,-0.554632 1.317559,-0.409495 1.621291,0.384273 0.324633,0.84839 -0.55715,1.32909 -2.633217,1.435488 C 21.904581,22.747946 21.175,22.575024 22,22.275693 Z M 9.1624406,17.457173 C 8.5230983,16.05397 8.0197518,14.139568 8.0438928,13.202947 c 0.024141,-0.936621 0.6788675,0.07983 1.4549475,2.258772 1.6130037,4.528717 1.3982497,5.802595 -0.3363997,1.995454 z m 16.9165064,-0.04051 c 0.04798,-1.164943 0.284941,-1.4019 0.604167,-0.604167 0.288871,0.721875 0.253344,1.584375 -0.07895,1.916667 -0.332292,0.332291 -0.568641,-0.258334 -0.52522,-1.3125 z M 14.5,15 c 0.339919,-0.55 0.816476,-1 1.059017,-1 C 15.801558,14 16,14.45 16,15 16,15.55 15.523442,16 14.940983,16 14.358524,16 14.160081,15.55 14.5,15 Z m 4.042705,0.0691 C 18.226274,14.557102 18.424717,13.855545 18.983688,13.510081 19.54266,13.164618 20,13.583524 20,14.440983 c 0,1.756526 -0.600055,2.015159 -1.457295,0.628115 z M 15.5,12 c 0.339919,-0.55 0.816476,-1 1.059017,-1 C 16.801558,11 17,11.45 17,12 17,12.55 16.523442,13 15.940983,13 15.358524,13 15.160081,12.55 15.5,12 Z M 18,11 c 0,-0.55 0.476558,-1 1.059017,-1 0.582459,0 0.780902,0.45 0.440983,1 -0.339919,0.55 -0.816476,1 -1.059017,1 C 18.198442,12 18,11.55 18,11 Z"
         id="path1039" />
      <path
         style="fill:#5eb0db"
         d="m 18.8125,22.316886 c 0.721875,-0.288871 1.584375,-0.253344 1.916667,0.07895 0.332291,0.332292 -0.258334,0.568641 -1.3125,0.52522 -1.164943,-0.04798 -1.4019,-0.284941 -0.604167,-0.604167 z M 16.76845,19.83155 c 0.581102,-0.581102 1.646819,-0.859794 2.36826,-0.619313 0.748946,0.249648 0.295653,0.702941 -1.056551,1.05655 -1.663345,0.434974 -2.053777,0.304831 -1.311709,-0.437237 z M 11,18.622445 c 0,-0.207656 0.7875,-0.995156 1.75,-1.75 C 14.336056,15.628574 14.371426,15.663944 13.127555,17.25 11.821186,18.915748 11,19.445479 11,18.622445 Z m 11.753835,-3.455778 c -0.272309,-1.041315 0.05004,-1.833334 0.746165,-1.833334 0.696124,0 1.018474,0.792019 0.746165,1.833334 C 23.98248,16.175 23.646705,17 23.5,17 23.353295,17 23.01752,16.175 22.753835,15.166667 Z M 15.014286,2.5857143 c 0.647619,-0.6476191 1.323809,-0.6476191 1.971428,0 0.647619,0.647619 0.309524,0.9857143 -0.985714,0.9857143 -1.295238,0 -1.633333,-0.3380953 -0.985714,-0.9857143 z"
         id="path1038" />
      <path
         style="fill:#969ba3"
         d="M 6.5427051,25.069098 C 6.2262742,24.557102 6.4247166,23.855545 6.9836881,23.510081 7.5426596,23.164618 8,23.583524 8,24.440983 8,26.197509 7.399945,26.456142 6.5427051,25.069098 Z M 9,23.5 c 0,-0.825 0,-1.725 0,-2 0,-0.275 0.3375,-0.527247 0.75,-0.560549 1.380308,-0.111434 5.452243,-4.413679 6.331348,-6.689451 0.478033,-1.2375 1.316165,-2.25 1.862516,-2.25 0.546352,0 0.724043,0.701845 0.394871,1.559655 -0.399228,1.04037 0.1069,1.74412 1.520137,2.11369 C 22.301547,16.312119 21.748097,18 19.095971,18 c -2.167496,0 -5.39668,3.335624 -4.348153,4.491477 0.4137,0.456045 0.24067,0.536982 -0.384511,0.179859 -0.625181,-0.357123 -1.692782,0.02073 -2.372445,0.839674 C 10.404182,25.422843 9,25.417673 9,23.5 Z m 9.25,-0.189326 c 0.9625,-0.251527 2.5375,-0.251527 3.5,0 0.9625,0.251528 0.175,0.457323 -1.75,0.457323 -1.925,0 -2.7125,-0.205795 -1.75,-0.457323 z M 5.2320027,20 c 0,-1.925 0.2057953,-2.7125 0.4573228,-1.75 0.2515276,0.9625 0.2515276,2.5375 0,3.5 C 5.437798,22.7125 5.2320027,21.925 5.2320027,20 Z"
         id="path1037" />
      <path
         style="fill:#2395d0"
         d="m 16.254212,21.412455 c 0.323149,-0.32315 2.085649,-1.33565 3.916666,-2.25 3.548833,-1.772171 4.8283,-5.909312 1.666527,-5.38869 -1.224217,0.201581 -1.523053,-0.259843 -1.133369,-1.75 0.392472,-1.500813 0.04688,-2.019808 -1.337405,-2.008452 -2.597653,0.02131 -3.835153,1.020607 -5.462257,4.410845 -1.868608,3.893437 -3.514656,4.26274 -4.3401413,0.973743 C 9.0616831,13.397584 9.6047251,11.559066 11.694893,8.1863574 13.237702,5.6968718 15.022515,3.4873439 15.661144,3.2762953 17.01705,2.8282074 26,15.017583 26,17.305562 26,19.932671 23.032688,22 19.261905,22 17.284524,22 15.931062,21.735605 16.254212,21.412455 Z"
         id="path1036" />
      <path
         style="fill:#2e3a48"
         d="M 10.530741,28.313144 C 7.6924442,26.777231 7.6548515,26.671823 9.6784139,25.923259 c 1.1643121,-0.430707 2.4278791,-1.286228 2.8079271,-1.901158 0.442046,-0.715246 2.239086,-0.885903 4.987957,-0.473684 2.554575,0.383082 5.154323,0.185523 6.411332,-0.487208 2.361321,-1.263741 2.596713,-0.830991 1.084726,1.994182 -1.273649,2.379834 -6.094609,4.958127 -9.170696,4.904571 -1.264813,-0.02202 -3.635826,-0.763089 -5.268919,-1.646818 z M 6.0222358,19.809017 C 5.996039,14.282401 7.1798166,12.98874 8.6643319,16.92167 9.5240874,19.199422 9.378779,20.163516 7.8823982,22.109657 L 6.0444717,24.5 Z"
         id="path1035" />
    </g>
  </g>
</svg>
